<?xml version="1.0" encoding="UTF-8"?>
<svg version="1.1" viewBox="0 0 2000 1968" xmlns="http://www.w3.org/2000/svg">
<g transform="translate(-.24239 .79676)">
<svg width="2e3" height="1968" data-background-color="#293040" viewBox="0 0 251 247" xmlns="http://www.w3.org/2000/svg" xmlns:xlink="http://www.w3.org/1999/xlink">
<g transform="translate(.03042 -.1)">
<svg width="250.94" height="247.2" viewBox="0 0 250.93915966386552 247.19999999999996">
<svg width="250.94" height="247.2" viewBox="0 0 250.93915966386552 247.19999999999996">
<svg width="250.94" height="247.2" viewBox="0 0 250.93915966386552 247.19999999999996">
<svg width="250.94" height="247.2" viewBox="0 0 250.93915966386552 247.19999999999996">
<svg width="250.94" height="247.2" viewBox="0 0 250.93915966386552 247.19999999999996">
<svg width="250.94" height="247.2" viewBox="0 0 250.93915966386552 247.19999999999996">
<g>
<svg width="250.94" height="247.2" data-palette-color="#d5b263" viewBox="0 -29 30.199999999999996 29.75">
<path class="wordmark-text-0" d="m24.35-10.7q1.55-0.45 3.25-1.53 1.7-1.07 2.15-1.07t0.45 0.57q0 0.58-0.7 1.08-2.55 1.8-5.3 2.75-1.05 4.85-4.7 7.25t-8.35 2.4q-3 0-5.27-1.05-2.28-1.05-3.48-2.7-2.4-3.25-2.4-6.85 0-4.65 1.43-8.43 1.42-3.77 3.72-6.05 2.3-2.27 4.98-3.47 2.67-1.2 5.42-1.2t5.05 1.77q2.3 1.78 2.3 4.08 0 0.75-0.57 1.25-0.58 0.5-1.38 0.5-1.15 0-1.6-1.6-1.1-3.85-5.25-3.85-3.5 0-6.77 4.35-3.28 4.35-3.28 10.3 0 4.2 2.53 7.3 2.52 3.1 6.32 3.1 3.05 0 5.2-1.75t2.75-4.5q-1.25 0.25-3.05 0.25t-3.12-0.85q-1.33-0.85-1.33-2.33 0-1.47 1.53-2.52 1.52-1.05 3.87-1.05t3.98 0.95q1.62 0.95 1.62 2.9zm-5.75-2.15q-2.25 0-2.25 1 0 0.75 0.9 1.25t1.88 0.5q0.97 0 1.97-0.1-0.05-1.2-0.8-1.93-0.75-0.72-1.7-0.72z" fill="#d5b263" data-fill-palette-color="primary"/>
</svg>
</g>
</svg>
</svg>
</svg>
</svg>
</svg>
</svg>
<rect width="250.94" height="247.2" fill="none" visibility="hidden"/>
</g>
</svg>
</g>
</svg>
